# Blender 4.2.0
# www.blender.org
mtllib BlockEnemy.mtl
o Cube
v 1.000000 1.000000 -0.282478
v 0.709454 -1.000000 -0.200405
v 1.000000 1.000000 0.282478
v 0.709454 -1.000000 0.200405
v -1.000000 1.000000 -0.282478
v -0.709454 -1.000000 -0.200405
v -1.000000 1.000000 0.282478
v -0.709454 -1.000000 0.200405
v 0.240503 -1.000000 -0.200405
v 0.240503 -1.000000 0.200405
v 0.667001 -1.000000 -0.200405
v 0.667001 -1.000000 0.200405
v -0.670563 -1.000000 -0.200405
v -0.670563 -1.000000 0.200405
v -0.230536 -1.000000 -0.200405
v -0.230536 -1.000000 0.200405
v 0.240503 -1.000000 -0.200405
v 0.240503 -1.000000 0.200405
v 0.667001 -1.000000 -0.200405
v 0.667001 -1.000000 0.200405
v -0.670563 -1.000000 -0.200405
v -0.670563 -1.000000 0.200405
v -0.230536 -1.000000 -0.200405
v -0.230536 -1.000000 0.200405
v 0.240503 -2.465868 -0.200405
v 0.240503 -2.465868 0.200405
v 0.667001 -2.465868 -0.200405
v 0.667001 -2.465868 0.200405
v -0.670563 -2.465868 -0.200405
v -0.670563 -2.465868 0.200405
v -0.230536 -2.465868 -0.200405
v -0.230536 -2.465868 0.200405
v 1.000000 1.000000 -0.282478
v 0.709454 -1.000000 -0.200405
v 1.000000 1.000000 0.282478
v 0.709454 -1.000000 0.200405
v 1.030030 0.812649 -0.049946
v 0.980986 0.527303 0.007592
v 1.030030 0.812649 0.240773
v 0.980986 0.527303 0.213843
v 2.070016 0.633898 -0.049946
v 2.020971 0.348552 0.007592
v 2.070016 0.633898 0.240773
v 2.020971 0.348552 0.213843
v -0.958320 0.360102 -0.112847
v -0.958320 0.360102 0.131227
v -0.983367 0.642755 0.184611
v -0.983367 0.642755 -0.159419
v -2.190252 0.250936 -0.112847
v -2.190252 0.250936 0.131227
v -2.215299 0.533589 0.184611
v -2.215299 0.533589 -0.159419
v 0.187335 1.000000 0.217602
v -0.187335 1.000000 0.217602
v 0.187335 1.000000 -0.217602
v -0.187335 1.000000 -0.217602
v 0.187335 1.156945 0.217602
v -0.187335 1.156945 0.217602
v 0.187335 1.156945 -0.217602
v -0.187335 1.156945 -0.217602
v 0.478047 1.384148 0.555283
v -0.478047 1.384148 0.555283
v 0.478047 1.384148 -0.555283
v -0.478047 1.384148 -0.555283
v 0.478047 1.735451 0.555283
v -0.478047 1.735451 0.555283
v 0.478047 1.735451 -0.555283
v -0.478047 1.735451 -0.555283
v 0.403557 2.176896 0.468757
v -0.403557 2.176896 0.468757
v 0.403557 2.176896 -0.468757
v -0.403557 2.176896 -0.468757
v 0.100115 2.458017 0.116290
v -0.100115 2.458017 0.116290
v 0.100115 2.458017 -0.116290
v -0.100115 2.458017 -0.116290
vn -0.0000 1.0000 -0.0000
vn -0.0000 -0.0410 0.9992
vn -0.9837 -0.1800 -0.0000
vn -0.0000 -0.0410 -0.9992
vn -0.0000 -1.0000 -0.0000
vn -1.0000 -0.0000 -0.0000
vn -0.0000 -0.0000 1.0000
vn -0.0000 -0.0000 -1.0000
vn 1.0000 -0.0000 -0.0000
vn 0.9874 0.1583 -0.0000
vn -0.1694 -0.9855 -0.0000
vn 0.9693 -0.1557 -0.1901
vn 0.9846 -0.1750 -0.0000
vn 0.6628 -0.1336 0.7367
vn 0.9855 -0.1694 -0.0000
vn -0.0157 -0.0913 0.9957
vn 0.1694 0.9855 -0.0000
vn -0.0330 -0.1921 -0.9808
vn 0.0143 -0.1613 -0.9868
vn -0.9989 -0.0465 -0.0000
vn -0.9334 -0.1475 -0.3270
vn -0.9140 -0.1488 0.3775
vn -0.9961 -0.0883 -0.0000
vn 0.0883 -0.9961 -0.0000
vn -0.0883 0.9961 -0.0000
vn 0.0163 -0.1842 0.9828
vn -0.6158 -0.7879 -0.0000
vn -0.0000 -0.8297 0.5582
vn -0.0000 -0.8297 -0.5582
vn 0.6158 -0.7879 -0.0000
vn -0.9861 0.1664 -0.0000
vn -0.0000 0.7818 -0.6235
vn -0.0000 0.1923 0.9813
vn -0.0000 0.1923 -0.9813
vn 0.9861 0.1664 -0.0000
vn 0.6796 0.7336 -0.0000
vn -0.6796 0.7336 -0.0000
vn -0.0000 0.7818 0.6235
vt 0.875000 0.500000
vt 0.875000 0.750000
vt 0.375000 0.750000
vt 0.625000 0.750000
vt 0.625000 1.000000
vt 0.375000 1.000000
vt 0.375000 0.250000
vt 0.375000 0.000000
vt 0.625000 0.250000
vt 0.625000 0.500000
vt 0.375000 0.500000
vt 0.125000 0.500000
vt 0.125000 0.750000
vt 0.625000 0.000000
s 0
usemtl MainColor
f 5/1/1 7/2/1 54/2/1 56/1/1
f 4/3/2 3/4/2 7/5/2 8/6/2
f 6/7/3 8/8/3 46/8/3 45/7/3
f 4/3/1 8/6/1 10/6/1 12/3/1
f 3/4/1 4/3/1 36/3/1 35/4/1
f 6/7/4 5/9/4 1/10/4 2/11/4
f 13/7/1 15/7/1 23/7/1 21/7/1
f 9/12/5 10/13/5 16/13/5 15/12/5
f 2/11/5 4/3/5 12/3/5 11/11/5
f 6/7/1 2/11/1 11/11/1 9/7/1
f 12/3/1 10/6/1 18/6/1 20/3/1
f 8/8/5 6/7/5 13/7/5 14/8/5
f 6/7/1 9/7/1 15/7/1 13/7/1
f 10/6/1 8/6/1 14/6/1 16/6/1
f 22/8/6 21/7/6 29/7/6 30/8/6
f 24/6/7 22/6/7 30/6/7 32/6/7
f 10/13/1 9/12/1 17/12/1 18/13/1
f 15/12/1 16/13/1 24/13/1 23/12/1
f 11/11/1 12/3/1 20/3/1 19/11/1
f 9/7/1 11/11/1 19/11/1 17/7/1
f 16/6/1 14/6/1 22/6/1 24/6/1
f 14/8/1 13/7/1 21/7/1 22/8/1
f 25/12/5 27/11/5 28/3/5 26/13/5
f 30/8/5 29/7/5 31/7/5 32/8/5
f 20/3/7 18/6/7 26/6/7 28/3/7
f 18/13/6 17/12/6 25/12/6 26/13/6
f 21/7/8 23/7/8 31/7/8 29/7/8
f 23/12/9 24/13/9 32/13/9 31/12/9
f 19/11/9 20/3/9 28/3/9 27/11/9
f 17/7/8 19/11/8 27/11/8 25/7/8
f 33/10/10 35/4/10 39/4/10 37/10/10
f 2/11/1 1/10/1 33/10/1 34/11/1
f 4/3/1 2/11/1 34/11/1 36/3/1
f 1/10/1 3/4/1 35/4/1 33/10/1
f 40/3/11 38/11/11 42/11/11 44/3/11
f 34/11/12 33/10/12 37/10/12 38/11/12
f 36/3/13 34/11/13 38/11/13 40/3/13
f 35/4/14 36/3/14 40/3/14 39/4/14
f 42/11/15 41/10/15 43/4/15 44/3/15
f 39/4/16 40/3/16 44/3/16 43/4/16
f 37/10/17 39/4/17 43/4/17 41/10/17
f 38/11/18 37/10/18 41/10/18 42/11/18
f 48/9/19 45/7/19 49/7/19 52/9/19
f 7/2/20 5/1/20 48/1/20 47/2/20
f 5/9/21 6/7/21 45/7/21 48/9/21
f 8/6/22 7/5/22 47/5/22 46/6/22
f 50/8/23 51/14/23 52/9/23 49/7/23
f 45/7/24 46/8/24 50/8/24 49/7/24
f 47/2/25 48/1/25 52/1/25 51/2/25
f 46/6/26 47/5/26 51/5/26 50/6/26
f 56/1/6 54/2/6 58/2/6 60/1/6
f 3/4/1 1/10/1 55/10/1 53/4/1
f 1/10/1 5/9/1 56/9/1 55/10/1
f 7/5/1 3/4/1 53/4/1 54/5/1
f 60/1/27 58/2/27 62/2/27 64/1/27
f 54/5/7 53/4/7 57/4/7 58/5/7
f 55/10/8 56/9/8 60/9/8 59/10/8
f 53/4/9 55/10/9 59/10/9 57/4/9
f 63/10/8 64/9/8 68/9/8 67/10/8
f 58/5/28 57/4/28 61/4/28 62/5/28
f 59/10/29 60/9/29 64/9/29 63/10/29
f 57/4/30 59/10/30 63/10/30 61/4/30
f 68/1/31 66/2/31 70/2/31 72/1/31
f 61/4/9 63/10/9 67/10/9 65/4/9
f 64/1/6 62/2/6 66/2/6 68/1/6
f 62/5/7 61/4/7 65/4/7 66/5/7
f 71/10/32 72/9/32 76/9/32 75/10/32
f 66/5/33 65/4/33 69/4/33 70/5/33
f 67/10/34 68/9/34 72/9/34 71/10/34
f 65/4/35 67/10/35 71/10/35 69/4/35
f 75/10/1 76/1/1 74/2/1 73/4/1
f 69/4/36 71/10/36 75/10/36 73/4/36
f 72/1/37 70/2/37 74/2/37 76/1/37
f 70/5/38 69/4/38 73/4/38 74/5/38
